<svg width="246" height="246" viewBox="0 0 246 246" fill="none" xmlns="http://www.w3.org/2000/svg">
<path d="M84.0561 70C76.3113 70 70.0057 76.3133 70 84.0751C70 91.8369 76.3056 98.1514 84.0561 98.1514C91.8036 98.1514 98.1061 91.8369 98.1061 84.0751C98.1061 76.3141 91.8032 70 84.0561 70Z" fill="#1B1F23"/>
<path d="M94.6054 103.807H73.5053C72.5016 103.807 71.6875 104.622 71.6875 105.628V173.638C71.6875 174.644 72.5016 175.459 73.5053 175.459H94.605C95.6091 175.459 96.4232 174.644 96.4232 173.638V105.628C96.4236 104.621 95.6095 103.807 94.6054 103.807Z" fill="#1B1F23"/>
<path d="M148.547 103.006C140.825 103.006 134.04 105.361 129.899 109.2V105.628C129.899 104.622 129.085 103.807 128.081 103.807H107.84C106.836 103.807 106.022 104.622 106.022 105.628V173.638C106.022 174.644 106.836 175.459 107.84 175.459H128.92C129.924 175.459 130.739 174.643 130.739 173.638V139.99C130.739 130.336 132.512 124.352 141.361 124.352C150.08 124.362 150.733 130.779 150.733 140.567V173.638C150.733 174.644 151.547 175.459 152.551 175.459H173.641C174.645 175.459 175.459 174.643 175.459 173.638V136.331C175.458 120.816 172.4 103.006 148.547 103.006Z" fill="#1B1F23"/>
<rect x="5" y="5" width="236" height="236" stroke="#242424" stroke-width="10"/>
</svg>
