<svg width="246" height="246" viewBox="0 0 246 246" fill="none" xmlns="http://www.w3.org/2000/svg">
<path fill-rule="evenodd" clip-rule="evenodd" d="M122.5 70C93.4937 70 70 94.3174 70 124.341C70 148.386 85.0281 168.696 105.897 175.896C108.522 176.372 109.506 174.741 109.506 173.315C109.506 172.024 109.441 167.745 109.441 163.194C96.25 165.707 92.8375 159.866 91.7875 156.809C91.1969 155.247 88.6375 150.424 86.4062 149.133C84.5688 148.115 81.9438 145.601 86.3406 145.533C90.475 145.465 93.4281 149.473 94.4125 151.103C99.1375 159.322 106.684 157.013 109.703 155.586C110.163 152.054 111.541 149.677 113.05 148.318C101.369 146.96 89.1625 142.273 89.1625 121.488C89.1625 115.578 91.1969 110.688 94.5438 106.884C94.0187 105.525 92.1812 99.9552 95.0688 92.4834C95.0688 92.4834 99.4656 91.057 109.506 98.0533C113.706 96.8307 118.169 96.2193 122.631 96.2193C127.094 96.2193 131.556 96.8307 135.756 98.0533C145.797 90.989 150.194 92.4834 150.194 92.4834C153.081 99.9552 151.244 105.525 150.719 106.884C154.066 110.688 156.1 115.51 156.1 121.488C156.1 142.341 143.828 146.96 132.147 148.318C134.05 150.016 135.691 153.277 135.691 158.371C135.691 165.639 135.625 171.481 135.625 173.315C135.625 174.741 136.609 176.44 139.234 175.896C159.972 168.696 175 148.318 175 124.341C175 94.3174 151.506 70 122.5 70Z" fill="#242424"/>
<rect x="5" y="5" width="236" height="236" stroke="#242424" stroke-width="10"/>
</svg>
